# Blender v2.91.0 OBJ File: 'pan_arrow.blend'
# www.blender.org
mtllib pan_arrow.mtl
o truck_arrow_Plane
v -0.250000 0.300000 0.000000
v 0.250000 0.300000 0.000000
v -0.250000 1.000000 0.000000
v 0.250000 1.000000 0.000000
v -0.500000 1.019862 0.000000
v 0.500000 1.019862 0.000000
v 0.000000 1.519862 0.000000
v -0.250000 -0.300000 -0.000000
v 0.250000 -0.300000 -0.000000
v -0.250000 -1.000000 -0.000000
v 0.250000 -1.000000 -0.000000
v -0.500000 -1.019862 -0.000000
v 0.500000 -1.019862 -0.000000
v 0.000000 -1.519862 -0.000000
v 0.300000 0.250000 -0.000000
v 0.300000 -0.250000 -0.000000
v 1.000000 0.250000 -0.000000
v 1.000000 -0.250000 -0.000000
v 1.019862 0.500000 -0.000000
v 1.019862 -0.500000 -0.000000
v 1.519862 -0.000000 -0.000000
v -0.300000 0.250000 0.000000
v -0.300000 -0.250000 -0.000000
v -1.000000 0.250000 0.000000
v -1.000000 -0.250000 0.000000
v -1.019862 0.500000 0.000000
v -1.019862 -0.500000 0.000000
v -1.519862 -0.000000 0.000000
vt 0.000000 0.000000
vt 1.000000 0.000000
vt 1.000000 1.000000
vt 0.000000 1.000000
vt 1.000000 1.000000
vt 0.000000 1.000000
vt 0.000000 1.000000
vt 0.000000 0.000000
vt 0.000000 1.000000
vt 1.000000 1.000000
vt 1.000000 0.000000
vt 0.000000 1.000000
vt 1.000000 1.000000
vt 0.000000 1.000000
vt 0.000000 0.000000
vt 1.000000 0.000000
vt 1.000000 1.000000
vt 0.000000 1.000000
vt 1.000000 1.000000
vt 0.000000 1.000000
vt 0.000000 1.000000
vt 0.000000 0.000000
vt 0.000000 1.000000
vt 1.000000 1.000000
vt 1.000000 0.000000
vt 0.000000 1.000000
vt 1.000000 1.000000
vt 0.000000 1.000000
vn 0.0000 -0.0000 1.0000
usemtl None
s off
f 1/1/1 2/2/1 4/3/1 3/4/1
f 3/4/1 4/3/1 6/5/1 5/6/1
f 5/6/1 6/5/1 7/7/1
f 8/8/1 10/9/1 11/10/1 9/11/1
f 10/9/1 12/12/1 13/13/1 11/10/1
f 12/12/1 14/14/1 13/13/1
f 15/15/1 16/16/1 18/17/1 17/18/1
f 17/18/1 18/17/1 20/19/1 19/20/1
f 19/20/1 20/19/1 21/21/1
f 22/22/1 24/23/1 25/24/1 23/25/1
f 24/23/1 26/26/1 27/27/1 25/24/1
f 26/26/1 28/28/1 27/27/1
